<?xml version="1.0" standalone="no"?>
<!DOCTYPE svg PUBLIC "-//W3C//DTD SVG 20010904//EN"
 "http://www.w3.org/TR/2001/REC-SVG-20010904/DTD/svg10.dtd">
<svg version="1.0" xmlns="http://www.w3.org/2000/svg"
 width="20.000000pt" height="20.000000pt" viewBox="0 0 64.000000 64.000000"
 preserveAspectRatio="xMidYMid meet">

<g transform="translate(0.000000,64.000000) scale(0.10000,-0.10000)"
fill="#ffffff" stroke="none">
<path d="M240 574 c0 -20 54 -74 74 -74 25 0 19 29 -13 61 -32 32 -61 38 -61
13z"/>
<path d="M376 568 c-13 -13 -27 -34 -31 -46 -6 -21 -4 -23 17 -17 27 8 68 50
68 71 0 21 -25 17 -54 -8z"/>
<path d="M240 432 c-19 -9 -35 -24 -35 -32 0 -8 -9 -33 -20 -55 -74 -151 75
-299 227 -225 48 23 61 19 27 -9 -77 -63 -208 -37 -267 51 -36 56 -39 150 -4
197 23 32 28 51 13 51 -22 0 -55 -65 -59 -116 -7 -79 5 -120 46 -166 65 -72
158 -97 239 -63 44 19 75 44 67 56 -3 5 5 24 18 42 19 26 23 45 23 104 0 64
-3 75 -31 110 -41 51 -87 73 -154 73 -32 0 -69 -7 -90 -18z m147 -13 c72 -27
121 -111 107 -184 -7 -38 -41 -88 -53 -80 -5 2 -25 -5 -47 -15 -45 -24 -73
-25 -118 -6 -41 17 -74 58 -82 103 -7 37 9 108 27 119 19 11 21 -4 5 -35 -43
-83 11 -171 107 -171 42 0 89 22 75 35 -3 4 0 22 8 41 18 44 10 78 -28 109
-31 26 -67 32 -99 15 -33 -18 -21 -30 25 -24 36 5 47 3 65 -15 21 -21 27 -57
13 -77 -12 -17 -78 -16 -96 1 -19 19 -21 41 -5 51 8 4 8 9 -1 18 -8 8 -13 7
-20 -4 -14 -23 -12 -53 6 -79 15 -20 23 -23 65 -19 51 5 63 -4 30 -22 -35 -18
-71 -11 -103 20 -27 27 -29 35 -24 73 4 23 7 52 7 64 2 44 98 56 155 18 42
-27 49 -93 19 -167 -12 -30 13 -20 30 12 62 120 -67 253 -186 191 -42 -22 -57
-22 -44 -1 21 33 109 49 162 29z"/>
</g>
</svg>
