<svg width="26" height="26" viewBox="0 0 26 26" fill="none" xmlns="http://www.w3.org/2000/svg">
<path fill-rule="evenodd" clip-rule="evenodd" d="M13 0.25C8.77744 0.25 5.61338 2.01257 3.51986 3.75717C2.80943 4.34919 2.21966 4.94108 1.75 5.46535V2.33333C1.75 1.91912 1.41421 1.58333 1 1.58333C0.585786 1.58333 0.25 1.91912 0.25 2.33333V7.66667C0.25 8.08088 0.585786 8.41667 1 8.41667H5.66667C6.08088 8.41667 6.41667 8.08088 6.41667 7.66667C6.41667 7.25245 6.08088 6.91667 5.66667 6.91667H2.47948C2.95087 6.34634 3.61818 5.6278 4.48014 4.9095C6.38662 3.32077 9.22257 1.75 13 1.75C19.2509 1.75 24.25 6.7852 24.25 13C24.25 19.2132 19.2132 24.25 13 24.25C6.7868 24.25 1.75 19.2132 1.75 13C1.75 12.5858 1.41421 12.25 1 12.25C0.585786 12.25 0.25 12.5858 0.25 13C0.25 20.0416 5.95837 25.75 13 25.75C20.0416 25.75 25.75 20.0416 25.75 13C25.75 5.95997 20.0825 0.25 13 0.25ZM13.75 7.66667C13.75 7.25245 13.4142 6.91667 13 6.91667C12.5858 6.91667 12.25 7.25245 12.25 7.66667V13C12.25 13.2508 12.3753 13.4849 12.584 13.624L16.584 16.2907C16.9286 16.5205 17.3943 16.4273 17.624 16.0827C17.8538 15.738 17.7607 15.2724 17.416 15.0426L13.75 12.5986V7.66667Z" fill="white"/>
</svg>
