<svg width="28" height="24" viewBox="0 0 28 24" fill="none" xmlns="http://www.w3.org/2000/svg">
<path fill-rule="evenodd" clip-rule="evenodd" d="M5.8 0.916626H5.7679H5.76788C4.95505 0.916619 4.29944 0.916613 3.76853 0.95999C3.2219 1.00465 2.74175 1.09901 2.29754 1.32535C1.59193 1.68488 1.01825 2.25855 0.658726 2.96416C0.432386 3.40838 0.338026 3.88852 0.293364 4.43516C0.249987 4.96606 0.249993 5.62168 0.25 6.43451V6.43452V6.46663V6.99996V15.5333V15.5654V15.5654C0.249993 16.3782 0.249987 17.0339 0.293364 17.5648C0.338026 18.1114 0.432386 18.5915 0.658726 19.0358C1.01825 19.7414 1.59193 20.315 2.29754 20.6746C2.74175 20.9009 3.2219 20.9953 3.76853 21.0399C4.29946 21.0833 4.9551 21.0833 5.76798 21.0833H5.8H13C13.4142 21.0833 13.75 20.7475 13.75 20.3333C13.75 19.9191 13.4142 19.5833 13 19.5833H5.8C4.94755 19.5833 4.35331 19.5827 3.89068 19.5449C3.43681 19.5078 3.17604 19.4387 2.97852 19.3381C2.55516 19.1223 2.21095 18.7781 1.99524 18.3548C1.8946 18.1573 1.82547 17.8965 1.78838 17.4426C1.75058 16.98 1.75 16.3857 1.75 15.5333V7.74996H24.25V12.3333C24.25 12.7475 24.5858 13.0833 25 13.0833C25.4142 13.0833 25.75 12.7475 25.75 12.3333V6.99996V6.46663V6.4345C25.75 5.62167 25.75 4.96606 25.7066 4.43516C25.662 3.88852 25.5676 3.40838 25.3413 2.96416C24.9818 2.25855 24.4081 1.68488 23.7025 1.32535C23.2582 1.09901 22.7781 1.00465 22.2315 0.95999C21.7006 0.916613 21.0449 0.916619 20.2321 0.916626H20.2H5.8ZM24.25 6.24996H1.75004C1.75038 5.51179 1.75387 4.9797 1.78838 4.55731C1.82547 4.10343 1.8946 3.84266 1.99524 3.64515C2.21095 3.22178 2.55516 2.87758 2.97852 2.66186C3.17604 2.56122 3.43681 2.49209 3.89068 2.45501C4.35331 2.41721 4.94755 2.41663 5.8 2.41663H20.2C21.0525 2.41663 21.6467 2.41721 22.1093 2.45501C22.5632 2.49209 22.824 2.56122 23.0215 2.66186C23.4448 2.87758 23.7891 3.22178 24.0048 3.64515C24.1054 3.84266 24.1745 4.10343 24.2116 4.55731C24.2461 4.9797 24.2496 5.51179 24.25 6.24996ZM24.197 17.1363C23.9041 16.8434 23.4292 16.8434 23.1363 17.1363C22.8434 17.4292 22.8434 17.9041 23.1363 18.197L24.5227 19.5833H18.3333C17.9191 19.5833 17.5833 19.9191 17.5833 20.3333C17.5833 20.7475 17.9191 21.0833 18.3333 21.0833H24.5227L23.1363 22.4696C22.8434 22.7625 22.8434 23.2374 23.1363 23.5303C23.4292 23.8232 23.9041 23.8232 24.197 23.5303L26.8637 20.8636C27.1566 20.5707 27.1566 20.0959 26.8637 19.803L24.197 17.1363ZM6.33333 11.5833C5.91912 11.5833 5.58333 11.9191 5.58333 12.3333C5.58333 12.7475 5.91912 13.0833 6.33333 13.0833H10.3333C10.7475 13.0833 11.0833 12.7475 11.0833 12.3333C11.0833 11.9191 10.7475 11.5833 10.3333 11.5833H6.33333Z" fill="white"/>
</svg>
