<svg width="20" height="20" viewBox="0 0 20 20" fill="none" xmlns="http://www.w3.org/2000/svg">
<path fill-rule="evenodd" clip-rule="evenodd" d="M5.53041 2.19708C5.8233 1.90418 5.8233 1.42931 5.53041 1.13642C5.23752 0.843525 4.76264 0.843525 4.46975 1.13642L1.13642 4.46975C0.995766 4.6104 0.916748 4.80117 0.916748 5.00008C0.916748 5.19899 0.995766 5.38976 1.13642 5.53041L4.46975 8.86374C4.76264 9.15664 5.23752 9.15664 5.53041 8.86374C5.8233 8.57085 5.8233 8.09598 5.53041 7.80308L3.47741 5.75008H13.3334C13.7476 5.75008 14.0834 5.41429 14.0834 5.00008C14.0834 4.58587 13.7476 4.25008 13.3334 4.25008H3.47741L5.53041 2.19708ZM14.4698 12.1971C14.1769 11.9042 14.1769 11.4293 14.4698 11.1364C14.7626 10.8435 15.2375 10.8435 15.5304 11.1364L18.8637 14.4698C19.1566 14.7626 19.1566 15.2375 18.8637 15.5304L15.5304 18.8637C15.2375 19.1566 14.7626 19.1566 14.4698 18.8637C14.1769 18.5709 14.1769 18.096 14.4698 17.8031L16.5228 15.7501H6.66675C6.25253 15.7501 5.91675 15.4143 5.91675 15.0001C5.91675 14.5859 6.25253 14.2501 6.66675 14.2501H16.5228L14.4698 12.1971Z" fill="#dd6e0a"/>
</svg>
