<svg width="24" height="24" viewBox="0 0 24 24" fill="none" xmlns="http://www.w3.org/2000/svg">
<path fill-rule="evenodd" clip-rule="evenodd" d="M6.8 1.25L6.7679 1.25L6.76783 1.25C5.95502 1.25 5.29943 1.24999 4.76853 1.29337C4.2219 1.33803 3.74175 1.43239 3.29754 1.65873C2.59193 2.01825 2.01825 2.59193 1.65873 3.29754C1.43239 3.74176 1.33803 4.2219 1.29336 4.76853C1.24999 5.29944 1.24999 5.95504 1.25 6.76786L1.25 6.7679L1.25 6.8L1.25 17.2L1.25 17.2321C1.24999 18.0449 1.24999 18.7006 1.29336 19.2315C1.33803 19.7781 1.43239 20.2582 1.65873 20.7025C2.01825 21.4081 2.59193 21.9818 3.29754 22.3413C3.74175 22.5676 4.2219 22.662 4.76853 22.7066C5.29944 22.75 5.95505 22.75 6.76788 22.75L6.8 22.75L13.2 22.75L13.2321 22.75C14.045 22.75 14.7006 22.75 15.2315 22.7066C15.7781 22.662 16.2582 22.5676 16.7025 22.3413C17.4081 21.9818 17.9817 21.4081 18.3413 20.7025C18.5676 20.2582 18.662 19.7781 18.7066 19.2315C18.7404 18.8183 18.7479 18.3296 18.7495 17.75L18.8 17.75L18.8305 17.75C19.3646 17.75 19.8104 17.75 20.1747 17.7203C20.5546 17.6892 20.9112 17.6221 21.2485 17.4503C21.7659 17.1866 22.1866 16.7659 22.4503 16.2485C22.6221 15.9112 22.6892 15.5546 22.7203 15.1747C22.75 14.8105 22.75 14.3646 22.75 13.8305L22.75 13.8304L22.75 13.8L22.75 10.2L22.75 10.1696L22.75 10.0067L22.75 10L22.75 9.99229C22.7496 9.53594 22.7467 9.14851 22.7203 8.82533C22.6892 8.44545 22.6221 8.08879 22.4503 7.75153C22.1866 7.23408 21.7659 6.81339 21.2485 6.54973C20.9112 6.37789 20.5546 6.31078 20.1747 6.27974C19.8104 6.24998 19.3646 6.24999 18.8304 6.25L18.8 6.25L18.7495 6.25C18.7479 5.67043 18.7404 5.18172 18.7066 4.76853C18.662 4.2219 18.5676 3.74176 18.3413 3.29754C17.9818 2.59193 17.4081 2.01825 16.7025 1.65873C16.2582 1.43239 15.7781 1.33803 15.2315 1.29337C14.7006 1.24999 14.045 1.25 13.2321 1.25L13.2321 1.25L13.2 1.25L6.8 1.25ZM21.2252 8.94748C21.2327 9.0389 21.2379 9.13876 21.2416 9.25L18.75 9.25L18.75 7.75L18.8 7.75C19.3724 7.75 19.7566 7.75059 20.0525 7.77476C20.3396 7.79822 20.4769 7.8401 20.5675 7.88624C20.8027 8.00609 20.9939 8.19731 21.1138 8.43251C21.1599 8.52307 21.2018 8.66036 21.2252 8.94748ZM21.25 10.75L18.75 10.75L18.75 16.25L18.8 16.25C19.3724 16.25 19.7566 16.2494 20.0525 16.2252C20.3396 16.2018 20.4769 16.1599 20.5675 16.1138C20.8027 15.9939 20.9939 15.8027 21.1138 15.5675C21.1599 15.4769 21.2018 15.3396 21.2252 15.0525C21.2494 14.7566 21.25 14.3724 21.25 13.8L21.25 10.75ZM17.25 10L17.25 10.0009L17.25 17L17.25 17.2C17.25 18.0525 17.2494 18.6467 17.2116 19.1093C17.1745 19.5632 17.1054 19.824 17.0048 20.0215C16.789 20.4448 16.4448 20.7891 16.0215 21.0048C15.824 21.1054 15.5632 21.1745 15.1093 21.2116C14.6467 21.2494 14.0525 21.25 13.2 21.25L6.8 21.25C5.94755 21.25 5.35331 21.2494 4.89068 21.2116C4.4368 21.1745 4.17604 21.1054 3.97852 21.0048C3.55516 20.7891 3.21095 20.4448 2.99524 20.0215C2.8946 19.824 2.82546 19.5632 2.78838 19.1093C2.75058 18.6467 2.75 18.0525 2.75 17.2L2.75 6.8C2.75 5.94755 2.75058 5.35331 2.78838 4.89068C2.82546 4.43681 2.8946 4.17604 2.99524 3.97852C3.21095 3.55516 3.55516 3.21095 3.97852 2.99524C4.17604 2.8946 4.4368 2.82547 4.89068 2.78838C5.35331 2.75059 5.94755 2.75 6.8 2.75L13.2 2.75C14.0525 2.75 14.6467 2.75059 15.1093 2.78838C15.5632 2.82547 15.824 2.8946 16.0215 2.99524C16.4448 3.21095 16.789 3.55516 17.0048 3.97852C17.1054 4.17604 17.1745 4.43681 17.2116 4.89068C17.2494 5.35331 17.25 5.94755 17.25 6.8L17.25 7L17.25 9.99907L17.25 10ZM5.8 4.25L5.77978 4.25L5.77978 4.25C5.65762 4.24997 5.52517 4.24994 5.41053 4.25931C5.28077 4.26991 5.10934 4.29615 4.93251 4.38624C4.69731 4.50609 4.50608 4.69731 4.38624 4.93251C4.29614 5.10934 4.2699 5.28077 4.2593 5.41053C4.24994 5.52517 4.24997 5.65762 4.25 5.77978L4.25 5.77979L4.25 5.8L4.25 9.2L4.25 9.22022C4.24997 9.34238 4.24994 9.47483 4.2593 9.58948C4.2699 9.71923 4.29614 9.89066 4.38624 10.0675C4.50608 10.3027 4.69731 10.4939 4.93251 10.6138C5.10934 10.7039 5.28077 10.7301 5.41053 10.7407C5.52517 10.7501 5.65763 10.75 5.77979 10.75L5.8 10.75L14.2 10.75L14.2202 10.75C14.3424 10.75 14.4748 10.7501 14.5895 10.7407C14.7192 10.7301 14.8907 10.7039 15.0675 10.6138C15.3027 10.4939 15.4939 10.3027 15.6138 10.0675C15.7039 9.89066 15.7301 9.71923 15.7407 9.58948C15.7501 9.47487 15.75 9.34248 15.75 9.22035L15.75 9.22033L15.75 9.22032L15.75 9.2203L15.75 9.22028L15.75 9.22026L15.75 9.22025L15.75 9.22023L15.75 9.2L15.75 5.8L15.75 5.77978L15.75 5.77976L15.75 5.77974L15.75 5.77972L15.75 5.77971L15.75 5.77969L15.75 5.77967L15.75 5.77966C15.75 5.65753 15.7501 5.52513 15.7407 5.41053C15.7301 5.28077 15.7039 5.10934 15.6138 4.93251C15.4939 4.69731 15.3027 4.50609 15.0675 4.38624C14.8907 4.29615 14.7192 4.26991 14.5895 4.25931C14.4748 4.24994 14.3424 4.24997 14.2202 4.25L14.2 4.25L5.8 4.25ZM5.75 5.8L5.75001 5.75002L5.8 5.75L14.2 5.75L14.25 5.75002L14.25 5.8L14.25 9.2L14.25 9.24999L14.2 9.25L5.8 9.25L5.75001 9.24999L5.75 9.2L5.75 5.8ZM7 14C7 14.5523 6.55228 15 6 15C5.44772 15 5 14.5523 5 14C5 13.4477 5.44772 13 6 13C6.55229 13 7 13.4477 7 14ZM6 19C6.55228 19 7 18.5523 7 18C7 17.4477 6.55228 17 6 17C5.44771 17 5 17.4477 5 18C5 18.5523 5.44772 19 6 19ZM11 14C11 14.5523 10.5523 15 10 15C9.44772 15 9 14.5523 9 14C9 13.4477 9.44771 13 10 13C10.5523 13 11 13.4477 11 14ZM10 19C10.5523 19 11 18.5523 11 18C11 17.4477 10.5523 17 10 17C9.44771 17 9 17.4477 9 18C9 18.5523 9.44772 19 10 19ZM15 14C15 14.5523 14.5523 15 14 15C13.4477 15 13 14.5523 13 14C13 13.4477 13.4477 13 14 13C14.5523 13 15 13.4477 15 14ZM14 19C14.5523 19 15 18.5523 15 18C15 17.4477 14.5523 17 14 17C13.4477 17 13 17.4477 13 18C13 18.5523 13.4477 19 14 19Z" fill="white"/>
</svg>
