<svg width="18" height="18" viewBox="0 0 18 18" fill="none" xmlns="http://www.w3.org/2000/svg">
<path fill-rule="evenodd" clip-rule="evenodd" d="M11.9167 1.2915C12.7222 1.2915 13.3751 1.94442 13.3751 2.74984C13.3751 3.55525 12.7222 4.20817 11.9167 4.20817H9.8401L10.389 2.37843C10.5826 1.7333 11.1764 1.2915 11.8499 1.2915H11.9167ZM14.6251 2.74984C14.6251 1.25407 13.4125 0.0415039 11.9167 0.0415039H11.8499C10.6243 0.0415039 9.5439 0.845388 9.19174 2.01925L9.00008 2.65811L8.80842 2.01925C8.45627 0.845388 7.37582 0.0415039 6.15027 0.0415039H6.08341C4.58764 0.0415039 3.37508 1.25407 3.37508 2.74984C3.37508 3.28687 3.53139 3.7874 3.80099 4.2084H2.33342C1.06776 4.2084 0.041748 5.23442 0.041748 6.50007C0.041748 7.54901 0.746481 8.43335 1.7083 8.70544V13.3332L1.7083 13.3599C1.70829 14.0373 1.70829 14.5836 1.74443 15.0261C1.78165 15.4816 1.86029 15.8817 2.0489 16.2519C2.34851 16.8399 2.82657 17.318 3.41458 17.6176C3.78476 17.8062 4.18488 17.8848 4.64041 17.922C5.08281 17.9582 5.62913 17.9582 6.30646 17.9582H6.30653H6.3333H8.98286C8.98858 17.9583 8.99432 17.9584 9.00008 17.9584C9.00584 17.9584 9.01158 17.9583 9.0173 17.9582H11.6666H11.6934H11.6935C12.3708 17.9582 12.9171 17.9582 13.3595 17.922C13.8151 17.8848 14.2152 17.8062 14.5854 17.6176C15.1734 17.318 15.6514 16.8399 15.951 16.2519C16.1396 15.8817 16.2183 15.4816 16.2555 15.0261C16.2916 14.5836 16.2916 14.0373 16.2916 13.3599V13.3332V8.70551C17.2536 8.43349 17.9584 7.54909 17.9584 6.50007C17.9584 5.23442 16.9324 4.2084 15.6667 4.2084H14.1992C14.4688 3.7874 14.6251 3.28687 14.6251 2.74984ZM2.9583 8.79174V13.3332C2.9583 14.0435 2.95878 14.5387 2.99028 14.9243C3.02119 15.3025 3.07879 15.5198 3.16266 15.6844C3.34242 16.0372 3.62926 16.324 3.98207 16.5038C4.14666 16.5877 4.36397 16.6453 4.7422 16.6762C5.12772 16.7077 5.62292 16.7082 6.3333 16.7082H8.37508V8.79174H2.9583ZM9.62508 16.7082V8.79174H15.0416V13.3332C15.0416 14.0435 15.0411 14.5387 15.0096 14.9243C14.9787 15.3025 14.9211 15.5198 14.8373 15.6844C14.6575 16.0372 14.3707 16.324 14.0179 16.5038C13.8533 16.5877 13.636 16.6453 13.2577 16.6762C12.8722 16.7077 12.377 16.7082 11.6666 16.7082H9.62508ZM15.6803 7.54165C16.2493 7.5344 16.7084 7.07084 16.7084 6.50007C16.7084 5.92477 16.242 5.4584 15.6667 5.4584H9.62508V7.5415H15.6666C15.6712 7.5415 15.6758 7.54155 15.6803 7.54165ZM8.37508 7.5415V5.4584H2.33342C1.75812 5.4584 1.29175 5.92477 1.29175 6.50007C1.29175 7.0708 1.75074 7.53432 2.31972 7.54165C2.32424 7.54155 2.32876 7.5415 2.3333 7.5415H8.37508ZM4.62508 2.74984C4.62508 1.94442 5.278 1.2915 6.08341 1.2915H6.15027C6.82381 1.2915 7.4176 1.7333 7.61114 2.37843L8.16006 4.20817H6.08341C5.278 4.20817 4.62508 3.55525 4.62508 2.74984Z" fill="#dd6e0a"/>
</svg>
